<?xml version="1.0"?>
<svg xmlns="http://www.w3.org/2000/svg" xmlns:xlink="http://www.w3.org/1999/xlink" xmlns:svgjs="http://svgjs.com/svgjs" version="1.1" width="512" height="512" x="0" y="0" viewBox="0 0 64 64" style="enable-background:new 0 0 512 512" xml:space="preserve" class=""><g><path xmlns="http://www.w3.org/2000/svg" d="m62 53c.552 0 1-.447 1-1v-4c0-.553-.448-1-1-1h-3v-11c0-3.86-3.14-7-7-7h-3v-11c0-3.86-3.14-7-7-7h-7.238l2.472-2.06c1.122-.935 1.766-2.31 1.766-3.77 0-2.224-1.663-4.053-3.787-4.164-1.105-.055-2.163.33-2.966 1.092-.086.082-.169.168-.247.256-.078-.089-.161-.174-.247-.256-.803-.762-1.852-1.149-2.966-1.092-2.124.111-3.787 1.94-3.787 4.164 0 1.46.644 2.835 1.766 3.77l2.472 2.06h-7.238c-3.86 0-7 3.14-7 7v11h-3c-3.86 0-7 3.14-7 7v11h-3c-.552 0-1 .447-1 1v4c0 .553.448 1 1 1h25v8h-26v2h62v-2h-26v-8zm-35-47.83c0-1.14.848-2.112 1.891-2.167.037-.002.073-.003.109-.003.516 0 1 .193 1.376.549.402.381.624.897.624 1.451 0 .552.448 1 1 1s1-.448 1-1c0-.554.222-1.07.624-1.451s.924-.575 1.485-.546c1.043.055 1.891 1.027 1.891 2.167 0 .865-.381 1.68-1.046 2.234l-3.954 3.294-3.954-3.294c-.665-.554-1.046-1.369-1.046-2.234zm-5 7.83h20c1.628 0 3.063.794 3.976 2.002-1.643.013-2.976 1.352-2.976 2.998v4c0 .551-.449 1-1 1s-1-.449-1-1v-2c0-1.654-1.346-3-3-3s-3 1.346-3 3v4c0 .551-.449 1-1 1s-1-.449-1-1v-6c0-1.654-1.346-3-3-3h-11.974c.913-1.207 2.347-2 3.974-2zm-5 5c0-.342.035-.677.101-1h12.899c.551 0 1 .449 1 1v6c0 1.654 1.346 3 3 3s3-1.346 3-3v-4c0-.551.449-1 1-1s1 .449 1 1v2c0 1.654 1.346 3 3 3s3-1.346 3-3v-4c0-.551.449-1 1-1h.899c.066.323.101.658.101 1v11h-30zm-5 13h40c1.627 0 3.061.793 3.974 2h-1.974c-1.654 0-3 1.346-3 3v4c0 .552-.449 1-1 1s-1-.448-1-1v-2c0-1.654-1.346-3-3-3s-3 1.346-3 3v4c0 .552-.449 1-1 1s-1-.448-1-1v-6c0-1.654-1.346-3-3-3h-29.974c.913-1.207 2.347-2 3.974-2zm-5 5c0-.342.035-.677.101-1h30.899c.551 0 1 .448 1 1v6c0 1.654 1.346 3 3 3s3-1.346 3-3v-4c0-.552.449-1 1-1s1 .448 1 1v2c0 1.654 1.346 3 3 3s3-1.346 3-3v-4c0-.552.449-1 1-1h2.899c.066.323.101.658.101 1v11h-50zm-4 13h58v2h-58zm32 12h-6v-8h6z" fill="#976536" data-original="#000000" style="" class=""/></g></svg>
