<?xml version="1.0"?>
<svg xmlns="http://www.w3.org/2000/svg" xmlns:xlink="http://www.w3.org/1999/xlink" xmlns:svgjs="http://svgjs.com/svgjs" version="1.1" width="512" height="512" x="0" y="0" viewBox="0 0 512 512" style="enable-background:new 0 0 512 512" xml:space="preserve" class=""><g><g xmlns="http://www.w3.org/2000/svg" id="outline"><path d="M382.487,282.453a38.866,38.866,0,0,0,9.513-25.5v-1.91a39.1,39.1,0,0,0-32.467-38.48,39.959,39.959,0,0,0-25.764-64.143,36.66,36.66,0,0,0-18.421-55.739l-9.21-3.071a44.663,44.663,0,0,1-29.675-51.133l3.382-16.91A8,8,0,0,0,267.2,17.6L238.737,38.947A141.066,141.066,0,0,0,200.59,82.552a47.7,47.7,0,0,0-6.876,2.955A198.874,198.874,0,0,1,184,24a8,8,0,0,0-16,0,214.85,214.85,0,0,0,12.341,71.908,47.9,47.9,0,0,0-5.286,57.113,39.953,39.953,0,0,0-22.588,63.544A39.1,39.1,0,0,0,120,255.045v1.91a38.866,38.866,0,0,0,9.513,25.5A39.21,39.21,0,0,0,104,319.146v1.708a39.206,39.206,0,0,0,25.263,36.594l39.062,132.81A8,8,0,0,0,176,496H336a8,8,0,0,0,7.675-5.742l39.062-132.81A39.206,39.206,0,0,0,408,320.854v-1.708A39.21,39.21,0,0,0,382.487,282.453Zm-134.15-230.7,11.839-8.88a60.664,60.664,0,0,0,40.9,65.924l9.21,3.07A20.6,20.6,0,0,1,303.774,152H257.542a47.962,47.962,0,0,0-36.656-71.753A124.928,124.928,0,0,1,248.337,51.748ZM216,96a32,32,0,1,1-32,32A32.036,32.036,0,0,1,216,96Zm-32,72h5.506a47.871,47.871,0,0,0,52.988,0H328a24,24,0,0,1,0,48H184a24,24,0,0,1,0-48Zm-48,87.045A23.071,23.071,0,0,1,159.045,232h193.91A23.071,23.071,0,0,1,376,255.045v1.91A23.071,23.071,0,0,1,352.955,280H159.045A23.071,23.071,0,0,1,136,256.955ZM146.691,360h30.6l5.647,32H156.1Zm18.824,64-4.706-16h47.87a47.468,47.468,0,0,0,0,16Zm28.02-64h30.922l1.111,18.909A48.354,48.354,0,0,0,214.458,392H199.182ZM181.986,480l-11.765-40h21.185l7.059,40Zm32.725,0-7.058-40h6.805a48.336,48.336,0,0,0,15.669,16.4l1.388,23.6Zm49.746,0H247.543l-1-16.939a48.052,48.052,0,0,0,18.906,0ZM256,448a32,32,0,1,1,32-32A32.036,32.036,0,0,1,256,448Zm-15.516-88h31.031l-.61,10.381a47.843,47.843,0,0,0-29.81,0Zm45.947,18.908L287.543,360h30.922l-5.647,32H297.542A48.329,48.329,0,0,0,286.431,378.908ZM297.289,480h-16.8l1.388-23.6A48.336,48.336,0,0,0,297.542,440h6.806Zm32.725,0H313.535l7.059-40h21.185Zm16.471-56H303.321a47.468,47.468,0,0,0,0-16h47.87Zm9.411-32H329.065l5.647-32h30.6ZM392,320.854A23.173,23.173,0,0,1,368.854,344H143.146A23.173,23.173,0,0,1,120,320.854v-1.708A23.173,23.173,0,0,1,143.146,296H368.854A23.173,23.173,0,0,1,392,319.146Z" fill="#976536" data-original="#000000" style="" class=""/><path d="M179.578,312.845l-16-8a8,8,0,1,0-7.156,14.31l16,8a8,8,0,0,0,7.156-14.31Z" fill="#976536" data-original="#000000" style="" class=""/><path d="M244.422,263.155l16,8a8,8,0,1,0,7.156-14.31l-16-8a8,8,0,1,0-7.156,14.31Z" fill="#976536" data-original="#000000" style="" class=""/><path d="M331.578,312.845l-16-8a8,8,0,0,0-7.156,14.31l16,8a8,8,0,1,0,7.156-14.31Z" fill="#976536" data-original="#000000" style="" class=""/><path d="M292.422,199.155l16,8a8,8,0,1,0,7.156-14.31l-16-8a8,8,0,0,0-7.156,14.31Z" fill="#976536" data-original="#000000" style="" class=""/><path d="M184.005,267.308a7.971,7.971,0,0,0,5.052-1.8L202.918,254.2a8,8,0,1,0-10.113-12.4l-13.862,11.307a8,8,0,0,0,5.062,14.2Z" fill="#976536" data-original="#000000" style="" class=""/><path d="M320.005,264a7.971,7.971,0,0,0,5.052-1.8l13.861-11.307a8,8,0,0,0-10.113-12.4L314.943,249.8a8,8,0,0,0,5.062,14.2Z" fill="#976536" data-original="#000000" style="" class=""/><path d="M248.805,305.8l-13.862,11.307a8,8,0,1,0,10.114,12.4L258.918,318.2a8,8,0,1,0-10.113-12.4Z" fill="#976536" data-original="#000000" style="" class=""/><path d="M240.005,203.308a7.971,7.971,0,0,0,5.052-1.8L258.918,190.2a8,8,0,1,0-10.113-12.4l-13.862,11.307a8,8,0,0,0,5.062,14.2Z" fill="#976536" data-original="#000000" style="" class=""/></g></g></svg>
